. 
  
http://www.torrentday.com/        :     The Hottest Private Tracker On The Net!!!
 
http://www.torrentday.com          :     Once & For all ;)


               www . TorrentDay . Com 

(((((((((((((= Enjoy No RAR releases =))))))))))))))))))))


...................................NFO:....................................

.[img]http://img607.imageshack.us/img607/2644/hornet.jpg[/img]

The Green Hornet 2011 TS XVID AC3 Hive-CM8




[b]Thx Hive

CM8 Doing It Right The First Time :D

Sources: like all others too, serenity and
The.Green.Hornet.2010.TS.XViD-T0XiC-iNK
thx to iNK for syncing and thx to serenity, again awesome video

Encode: corrected aspect,added bit brightness, added sharpness,chroma,rgb colours and denoise

Video: 720x290 @bitrate 1600 2pass
Audio: English AC3 2.0 Stereo
Sample: yes included[/b]
 
http://www.imdb.com/title/tt0990407/


General
Complete name                    : The.Green.Hornet.2011.TS.XVID.AC3.Hive-CM8.avi
Format                           : AVI
Format/Info                      : Audio Video Interleave
File size                        : 1.45 GiB
Duration                         : 1h 51mn
Overall bit rate                 : 1 865 Kbps
Writing application              : Nandub v1.0rc2
Writing library                  : Nandub build 1853/release

Video
ID                               : 0
Format                           : MPEG-4 Visual
Format profile                   : Advanced Simple@L5
Format settings, BVOP            : Yes
Format settings, QPel            : Yes
Format settings, GMC             : No warppoints
Format settings, Matrix          : Default (H.263)
Muxing mode                      : Packed bitstream
Codec ID                         : XVID
Codec ID/Hint                    : XviD
Duration                         : 1h 51mn
Bit rate                         : 1 600 Kbps
Width                            : 720 pixels
Height                           : 290 pixels
Display aspect ratio             : 2.483
Frame rate                       : 25.000 fps
Color space                      : YUV
Chroma subsampling               : 4:2:0
Bit depth                        : 8 bits
Scan type                        : Progressive
Bits/(Pixel*Frame)               : 0.306
Stream size                      : 1.24 GiB (86%)
Writing library                  : XviD 1.2.1 (UTC 2008-12-04)

Audio
ID                               : 1
Format                           : AC-3
Format/Info                      : Audio Coding 3
Mode extension                   : CM (complete main)
Codec ID                         : 2000
Duration                         : 1h 51mn
Bit rate mode                    : Constant
Bit rate                         : 256 Kbps
Channel(s)                       : 2 channels
Channel positions                : Front: L R
Sampling rate                    : 48.0 KHz
Bit depth                        : 16 bits
Stream size                      : 204 MiB (14%)
Alignment                        : Split accross interleaves
Interleave, duration             : 40 ms (1.00 video frame)
Interleave, preload duration     : 500 ms



Seth Rogen ... Britt Reid / The Green Hornet
Jay Chou ... Kato
Cameron Diaz ... Lenore Case
Tom Wilkinson ... James Reid
Christoph Waltz ... Chudnofsky
David Harbour ... Scanlon
Edward James Olmos.. Axford
Jamie Harris ... Popeye
Chad Coleman ... Chili 




Following the death of his father, Britt Reid, heir to his father's large
company, teams up with his late dad's assistant Kato to become a masked crime fighting
team.




[img]http://img171.imageshack.us/img171/8825/ggrgrr.png[/img]
[img]http://img7.imageshack.us/img7/2281/ggrgrgrgrr.png[/img]
[img]http://img87.imageshack.us/img87/9190/ggrgrgrr.png[/img]
[img]http://img694.imageshack.us/img694/9775/ggrggrrggrrgrgrr.png[/img]
[img]http://img338.imageshack.us/img338/1493/ggrggrrggrrgrr.png[/img]
[img]http://img402.imageshack.us/img402/5246/ggrggrrgrgrr.png[/img]
[img]http://img132.imageshack.us/img132/3739/ggrggrrgggrrrgrgrr.png[/img]
[img]http://img689.imageshack.us/img689/9095/ggrgggrrrgggrrrgrgrr.png[/img]
[img]http://img823.imageshack.us/img823/6971/ggrggrggrrrgggrrrgrgrr.png[/img]





Greetz

iNK,LUSi,,MAGNET,CLASSiFiED,THC,LEGi0N,IMAGiNE,ViSiON,WBZ,FLAWL3SS,NOVA
Rapeseed,D2U,SAFC,goldadvance,MEMORY100,KaN1vE,Unevano,Pinnz,Wayne,Mr Hive
and all P2P groups 
Great Work Guys :D